# This file uses centimeters as units for non-parametric coordinates.

v 2.601651 0.000000 -1.890207
v 0.993742 0.000000 -3.058419
v -0.993744 0.000000 -3.058419
v -2.601651 0.000000 -1.890207
v -3.215816 0.000000 0.000000
v -2.601651 0.000000 1.890207
v -0.993742 0.000000 3.058419
v 0.993743 0.000000 3.058419
v 2.601651 0.000000 1.890207
v 3.215815 0.000000 0.000000
v 20.318130 37.082458 -14.761984
v 7.760826 37.082458 -23.885418
v -7.760828 37.082458 -23.885416
v -20.318130 37.082458 -14.761984
v -25.114559 37.082458 0.000004
v -20.318130 37.082458 14.761986
v -7.760826 37.082458 23.885416
v 7.760828 37.082458 23.885416
v 20.318130 37.082458 14.761984
v 25.114559 37.082458 0.000002
vt 0.016346 1.001643
vt 0.016346 0.901408
vt 0.016346 0.801173
vt 0.016346 0.700939
vt 0.016346 0.600704
vt 0.016346 0.500470
vt 0.016346 0.400235
vt 0.016346 0.300001
vt 0.016346 0.199766
vt 0.016346 0.099532
vt 0.016346 -0.000703
vt 0.962715 1.001643
vt 0.962715 0.901408
vt 0.962715 0.801173
vt 0.962715 0.700939
vt 0.962715 0.600704
vt 0.962715 0.500470
vt 0.962715 0.400235
vt 0.962715 0.300001
vt 0.962715 0.199766
vt 0.962715 0.099532
vt 0.962715 -0.000703
vn 0.512488 -0.489691 -0.705378
vn 0.512488 -0.489691 -0.705378
vn 0.512488 -0.489691 -0.705378
vn 0.512488 -0.489691 -0.705378
vn -0.000000 -0.489692 -0.871896
vn -0.000000 -0.489692 -0.871896
vn -0.000000 -0.489692 -0.871896
vn -0.000000 -0.489692 -0.871896
vn -0.512488 -0.489691 -0.705378
vn -0.512488 -0.489691 -0.705378
vn -0.512488 -0.489691 -0.705378
vn -0.512488 -0.489691 -0.705378
vn -0.829223 -0.489691 -0.269429
vn -0.829223 -0.489691 -0.269429
vn -0.829223 -0.489691 -0.269429
vn -0.829223 -0.489691 -0.269429
vn -0.829223 -0.489691 0.269429
vn -0.829223 -0.489691 0.269429
vn -0.829223 -0.489691 0.269429
vn -0.829223 -0.489691 0.269429
vn -0.512488 -0.489691 0.705378
vn -0.512488 -0.489691 0.705378
vn -0.512488 -0.489691 0.705378
vn -0.512488 -0.489691 0.705378
vn 0.000000 -0.489692 0.871896
vn 0.000000 -0.489692 0.871896
vn 0.000000 -0.489692 0.871896
vn 0.000000 -0.489692 0.871896
vn 0.512488 -0.489691 0.705378
vn 0.512488 -0.489691 0.705378
vn 0.512488 -0.489691 0.705378
vn 0.512488 -0.489691 0.705378
vn 0.829223 -0.489691 0.269429
vn 0.829223 -0.489691 0.269429
vn 0.829223 -0.489691 0.269429
vn 0.829223 -0.489691 0.269429
vn 0.829223 -0.489691 -0.269429
vn 0.829223 -0.489691 -0.269429
vn 0.829223 -0.489691 -0.269429
vn 0.829223 -0.489691 -0.269429
g cone
f 1/1/1 2/2/2 12/13/3 11/12/4
f 2/2/5 3/3/6 13/14/7 12/13/8
f 3/3/9 4/4/10 14/15/11 13/14/12
f 4/4/13 5/5/14 15/16/15 14/15/16
f 5/5/17 6/6/18 16/17/19 15/16/20
f 6/6/21 7/7/22 17/18/23 16/17/24
f 7/7/25 8/8/26 18/19/27 17/18/28
f 8/8/29 9/9/30 19/20/31 18/19/32
f 9/9/33 10/10/34 20/21/35 19/20/36
f 10/10/37 1/11/38 11/22/39 20/21/40
